<?xml version="1.0" encoding="UTF-8"?>
<svg width="512" height="512" viewBox="0 0 512 512" fill="none" xmlns="http://www.w3.org/2000/svg">
  <rect width="512" height="512" rx="50" fill="#38BDF8"/>
  <path d="M256 102.4c-51.2 0-83.2 25.6-96 76.8 19.2-25.6 41.6-35.2 67.2-28.8 14.592 3.648 25.024 14.208 36.608 25.92C283.136 195.84 305.792 217.6 358.4 217.6c51.2 0 83.2-25.6 96-76.8-19.2 25.6-41.6 35.2-67.2 28.8-14.592-3.648-25.024-14.208-36.608-25.92C331.264 124.16 308.608 102.4 256 102.4ZM153.6 217.6c-51.2 0-83.2 25.6-96 76.8 19.2-25.6 41.6-35.2 67.2-28.8 14.592 3.648 25.024 14.208 36.608 25.92C180.736 311.04 203.392 332.8 256 332.8c51.2 0 83.2-25.6 96-76.8-19.2 25.6-41.6 35.2-67.2 28.8-14.592-3.648-25.024-14.208-36.608-25.92C228.864 239.36 206.208 217.6 153.6 217.6Z" fill="white"/>
</svg>
