<?xml version="1.0" encoding="UTF-8"?>
<svg width="512" height="512" viewBox="0 0 512 512" fill="none" xmlns="http://www.w3.org/2000/svg">
  <rect width="512" height="512" rx="50" fill="#3178C6"/>
  <path d="M317 407v50c8.1 4.2 18 7.3 29.5 9.4s23.4 3.1 35.5 3.1c12.3 0 24-1.1 35-3.4 11-2.3 20.6-6 28.8-11.4 8.2-5.3 14.5-12.4 19-21.2 4.5-8.8 6.8-19.8 6.8-33 0-9.5-1.4-17.8-4.2-24.7-2.8-7-6.8-13.2-12-18.6-5.2-5.4-11.6-10.3-19.2-14.5-7.6-4.2-16.2-8.3-25.8-12.2-7-2.8-13.3-5.6-18.8-8.2-5.5-2.6-10.2-5.3-14-8s-6.7-5.6-8.8-8.7c-2-3-3-6.6-3-10.6 0-3.8.9-7 2.7-9.8 1.8-2.8 4.5-5 8-6.9 3.5-1.8 7.7-3.2 12.6-4.1 4.9-1 10.4-1.4 16.5-1.4 4.4 0 9 .3 13.8 1 4.8.6 9.6 1.6 14.3 2.8a101 101 0 0 1 24.3 9.2v-47a128 128 0 0 0-25.3-7.3c-9.2-1.7-19.7-2.5-31.5-2.5-12.2 0-23.7 1.3-34.3 3.8-10.7 2.5-20 6.5-27.8 11.8-7.9 5.3-14 12.3-18.5 20.8-4.4 8.5-6.6 18.8-6.6 30.7 0 15.2 3.4 28 10.3 38.2 6.8 10.2 17.8 19 32.8 26.3 7.5 3.3 14.4 6.4 20.7 9.4 6.3 3 11.7 6 16.3 9s8.2 6.2 10.8 9.8c2.6 3.5 3.9 7.6 3.9 12.3 0 3.3-.8 6.3-2.4 9-1.6 2.6-4 4.9-7.2 6.7-3.1 1.9-7 3.3-11.5 4.3-4.5 1-9.7 1.5-15.5 1.5-12.6 0-24.8-2.2-36.5-6.7-11.7-4.4-22.4-11-32-19.8Zm-84-123h64v-41H118v41h64v183h51V284Z" fill="#fff"/></svg>
