<?xml version="1.0" encoding="UTF-8"?>
<svg width="800px" height="600px" viewBox="0 0 800 600" version="1.1" xmlns="http://www.w3.org/2000/svg">
    <defs>
        <linearGradient x1="0%" y1="0%" x2="100%" y2="100%" id="gradient1">
            <stop stop-color="#2196F3" offset="0%"></stop>
            <stop stop-color="#1976D2" offset="100%"></stop>
        </linearGradient>
        <linearGradient x1="100%" y1="0%" x2="0%" y2="100%" id="gradient2">
            <stop stop-color="#90CAF9" offset="0%"></stop>
            <stop stop-color="#2196F3" offset="100%"></stop>
        </linearGradient>
    </defs>
    <g stroke="none" stroke-width="1" fill="none" fill-rule="evenodd">
        <!-- Background Circles -->
        <circle fill="url(#gradient1)" opacity="0.1" cx="400" cy="300" r="250"></circle>
        <circle fill="url(#gradient2)" opacity="0.1" cx="400" cy="300" r="200"></circle>
        
        <!-- Chat Bubbles -->
        <g transform="translate(200, 150)">
            <!-- Left Chat Bubble -->
            <path d="M20,0 L180,0 C191.045695,0 200,8.954305 200,20 L200,80 C200,91.045695 191.045695,100 180,100 L20,100 C8.954305,100 0,91.045695 0,80 L0,20 C0,8.954305 8.954305,0 20,0 Z" fill="#E3F2FD"></path>
            <circle fill="#2196F3" cx="50" cy="50" r="8"></circle>
            <circle fill="#2196F3" cx="90" cy="50" r="8"></circle>
            <circle fill="#2196F3" cx="130" cy="50" r="8"></circle>
        </g>
        
        <g transform="translate(400, 250)">
            <!-- Right Chat Bubble -->
            <path d="M20,0 L180,0 C191.045695,0 200,8.954305 200,20 L200,80 C200,91.045695 191.045695,100 180,100 L20,100 C8.954305,100 0,91.045695 0,80 L0,20 C0,8.954305 8.954305,0 20,0 Z" fill="#2196F3"></path>
            <circle fill="white" cx="70" cy="50" r="8"></circle>
            <circle fill="white" cx="110" cy="50" r="8"></circle>
            <circle fill="white" cx="150" cy="50" r="8"></circle>
        </g>
        
        <g transform="translate(200, 350)">
            <!-- Bottom Chat Bubble -->
            <path d="M20,0 L180,0 C191.045695,0 200,8.954305 200,20 L200,80 C200,91.045695 191.045695,100 180,100 L20,100 C8.954305,100 0,91.045695 0,80 L0,20 C0,8.954305 8.954305,0 20,0 Z" fill="#E3F2FD"></path>
            <circle fill="#2196F3" cx="50" cy="50" r="8"></circle>
            <circle fill="#2196F3" cx="90" cy="50" r="8"></circle>
            <circle fill="#2196F3" cx="130" cy="50" r="8"></circle>
        </g>
    </g>
</svg>
